Coordinates
version=1
nRows=21
nColumns=12
inDegrees=yes

Units are S.I. units (second, meters, Newtons, ...)
Angles are in degrees

endheader
time	SC_y	SC_z	SC_x	AC_y	AC_z	AC_x	GH_y	GH_z	GH_yy	EL_x	PS_y
       0.0              -53.06          38.41          56.27          57.84         -12.36         0.7814         -95.15         -6.247          112.4          104.2          31.49
   0.04196              -53.05          38.41          56.26          57.84         -12.36         0.7805         -95.13         -6.243          112.4          104.1          31.49
   0.08393              -53.05          38.41          56.25          57.84         -12.35         0.7795         -95.11         -6.239          112.4          104.1          31.49
    0.1259              -53.05           38.4          56.25          57.84         -12.35         0.7785         -95.09         -6.235          112.4          104.1          31.48
    0.1679              -53.05           38.4          56.24          57.84         -12.35         0.7775         -95.07          -6.23          112.4          104.1          31.48
    0.2098              -53.04           38.4          56.23          57.84         -12.35         0.7763         -95.05         -6.225          112.4          104.1          31.48
    0.2518              -53.04          38.39          56.22          57.84         -12.35         0.7751         -95.02          -6.22          112.5          104.1          31.48
    0.2937              -53.04          38.39           56.2          57.84         -12.35         0.7738         -94.99         -6.214          112.5          104.1          31.48
    0.3357              -53.04          38.39          56.19          57.84         -12.34         0.7724         -94.96         -6.208          112.5          104.0          31.47
    0.3777              -53.03          38.38          56.18          57.84         -12.34         0.7709         -94.93         -6.201          112.5          104.0          31.47
    0.4196              -53.03          38.38          56.17          57.84         -12.34         0.7693          -94.9         -6.194          112.5          104.0          31.47
    0.4616              -53.02          38.37          56.15          57.84         -12.34         0.7676         -94.86         -6.187          112.5          104.0          31.47
    0.5036              -53.02          38.37          56.13          57.84         -12.34         0.7657         -94.82         -6.179          112.5          104.0          31.46
    0.5455              -53.02          38.36          56.12          57.84         -12.33         0.7637         -94.78          -6.17          112.5          103.9          31.46
    0.5875              -53.01          38.36           56.1          57.84         -12.33         0.7615         -94.74          -6.16          112.6          103.9          31.46
    0.6295               -53.0          38.35          56.08          57.84         -12.33         0.7591         -94.69          -6.15          112.6          103.9          31.45
    0.6714               -53.0          38.34          56.05          57.84         -12.32         0.7566         -94.63         -6.139          112.6          103.9          31.45
    0.7134              -52.99          38.34          56.03          57.84         -12.32         0.7538         -94.57         -6.127          112.6          103.8          31.44
    0.7553              -52.99          38.33           56.0          57.84         -12.32         0.7507         -94.51         -6.114          112.6          103.8          31.44
    0.7973              -52.98          38.32          55.97          57.84         -12.31         0.7474         -94.44         -6.099          112.7          103.8          31.43
    0.8393              -52.97          38.31          55.94          57.84         -12.31         0.7437         -94.36         -6.083          112.7          103.7          31.43
